<svg width="76" height="76" viewBox="0 0 76 76" fill="none" xmlns="http://www.w3.org/2000/svg"><path fill="#CCC" d="M0 0h7.6v7.6H0zm0 30.4h7.6V38H0zm0 30.401h7.6v7.6H0zM0 15.2h7.6v7.6H0zm0 30.401h7.6v7.6H0zM15.2 0h7.6v7.6h-7.6zm0 30.4h7.6V38h-7.6zm0 30.401h7.6v7.6h-7.6zm0-45.601h7.6v7.6h-7.6zm0 30.401h7.6v7.6h-7.6zM7.6 7.6h7.6v7.6H7.6zm0 30.401h7.6v7.6H7.6zm0-15.201h7.6v7.6H7.6zm0 30.401h7.6v7.6H7.6zm0 15.2h7.6v7.6H7.6zM30.4 0H38v7.6h-7.6zm0 30.4H38V38h-7.6zm0 30.401H38v7.6h-7.6zm0-45.601H38v7.6h-7.6zm0 30.401H38v7.6h-7.6zM22.8 7.6h7.6v7.6h-7.6zm0 30.401h7.6v7.6h-7.6zm0-15.201h7.6v7.6h-7.6zm0 30.401h7.6v7.6h-7.6zm0 15.2h7.6v7.6h-7.6zM45.601 0h7.6v7.6h-7.6zm0 30.4h7.6V38h-7.6zm0 30.401h7.6v7.6h-7.6zm0-45.601h7.6v7.6h-7.6zm0 30.401h7.6v7.6h-7.6zM38.001 7.6h7.6v7.6h-7.6zm0 30.401h7.6v7.6h-7.6zm0-15.201h7.6v7.6h-7.6zm0 30.401h7.6v7.6h-7.6zm0 15.2h7.6v7.6h-7.6zM60.801 0h7.6v7.6h-7.6zm0 30.4h7.6V38h-7.6zm0 30.401h7.6v7.6h-7.6zm0-45.601h7.6v7.6h-7.6zm0 30.401h7.6v7.6h-7.6zM53.201 7.6h7.6v7.6h-7.6zm0 30.401h7.6v7.6h-7.6zm0-15.201h7.6v7.6h-7.6zm0 30.401h7.6v7.6h-7.6zm0 15.2h7.6v7.6h-7.6zM68.401 7.6h7.6v7.6h-7.6zm0 30.401h7.6v7.6h-7.6zm0-15.201h7.6v7.6h-7.6zm0 30.401h7.6v7.6h-7.6zm0 15.2h7.6v7.6h-7.6z"/><path fill="#fff" d="M7.6 0h7.6v7.6H7.6zm0 30.4h7.6V38H7.6zm0 30.401h7.6v7.6H7.6zm0-45.601h7.6v7.6H7.6zm0 30.401h7.6v7.6H7.6zM0 7.6h7.6v7.6H0zm0 30.401h7.6v7.6H0zM0 22.8h7.6v7.6H0zm0 30.401h7.6v7.6H0zm0 15.2h7.6v7.6H0zM22.8 0h7.6v7.6h-7.6zm0 30.4h7.6V38h-7.6zm0 30.401h7.6v7.6h-7.6zm0-45.601h7.6v7.6h-7.6zm0 30.401h7.6v7.6h-7.6zM15.2 7.6h7.6v7.6h-7.6zm0 30.401h7.6v7.6h-7.6zm0-15.201h7.6v7.6h-7.6zm0 30.401h7.6v7.6h-7.6zm0 15.2h7.6v7.6h-7.6zM38.001 0h7.6v7.6h-7.6zm0 30.4h7.6V38h-7.6zm0 30.401h7.6v7.6h-7.6zm0-45.601h7.6v7.6h-7.6zm0 30.401h7.6v7.6h-7.6zM30.4 7.6H38v7.6h-7.6zm0 30.401H38v7.6h-7.6zm0-15.201H38v7.6h-7.6zm0 30.401H38v7.6h-7.6zm0 15.2H38v7.6h-7.6zM53.201 0h7.6v7.6h-7.6zm0 30.4h7.6V38h-7.6zm0 30.401h7.6v7.6h-7.6zm0-45.601h7.6v7.6h-7.6zm0 30.401h7.6v7.6h-7.6zM45.601 7.6h7.6v7.6h-7.6zm0 30.401h7.6v7.6h-7.6zm0-15.201h7.6v7.6h-7.6zm0 30.401h7.6v7.6h-7.6zm0 15.2h7.6v7.6h-7.6zM68.401 0h7.6v7.6h-7.6zm0 30.4h7.6V38h-7.6zm0 30.401h7.6v7.6h-7.6zm0-45.601h7.6v7.6h-7.6zm0 30.401h7.6v7.6h-7.6zM60.801 7.6h7.6v7.6h-7.6zm0 30.401h7.6v7.6h-7.6zm0-15.201h7.6v7.6h-7.6zm0 30.401h7.6v7.6h-7.6zm0 15.2h7.6v7.6h-7.6z"/></svg>